<svg width="1440" height="215" viewBox="0 0 1440 215" fill="none" xmlns="http://www.w3.org/2000/svg">
<path d="M-18.9735 180.364V-0.000116348H13.6998V152.974H93.1373V180.364H-18.9735ZM183.985 123.471V45.0908H215.866V180.364H184.954V156.321H183.545C180.492 163.895 175.472 170.089 168.485 174.903C161.557 179.718 153.014 182.125 142.857 182.125C133.992 182.125 126.153 180.158 119.343 176.224C112.591 172.232 107.307 166.449 103.491 158.875C99.6743 151.242 97.7661 142.025 97.7661 131.221V45.0908H129.647V126.29C129.647 134.862 131.995 141.672 136.692 146.721C141.389 151.771 147.554 154.295 155.187 154.295C159.884 154.295 164.434 153.15 168.837 150.861C173.241 148.571 176.851 145.166 179.67 140.645C182.546 136.065 183.985 130.341 183.985 123.471ZM226.329 180.364V45.0908H256.801V68.0766H258.386C261.204 60.3266 265.872 54.2792 272.389 49.9345C278.906 45.5311 286.685 43.3294 295.727 43.3294C304.886 43.3294 312.606 45.5605 318.889 50.0226C325.23 54.426 329.692 60.444 332.275 68.0766H333.684C336.678 60.5614 341.728 54.5728 348.832 50.1107C355.995 45.5899 364.479 43.3294 374.283 43.3294C386.73 43.3294 396.888 47.2631 404.755 55.1306C412.623 62.998 416.556 74.4762 416.556 89.5652V180.364H384.587V94.497C384.587 86.1012 382.356 79.9658 377.894 76.0908C373.432 72.1571 367.972 70.1902 361.514 70.1902C353.822 70.1902 347.804 72.5974 343.46 77.4118C339.174 82.1675 337.031 88.3616 337.031 95.9942V180.364H305.766V93.176C305.766 86.1893 303.653 80.6116 299.426 76.4431C295.257 72.2745 289.797 70.1902 283.045 70.1902C278.465 70.1902 274.297 71.3645 270.539 73.713C266.782 76.0027 263.787 79.2613 261.556 83.4885C259.325 87.6571 258.21 92.5302 258.21 98.1078V180.364H226.329ZM427.988 180.364V-0.000116348H459.869V67.4601H461.19C462.834 64.1722 465.153 60.6789 468.147 56.98C471.142 53.2224 475.193 50.0226 480.301 47.3806C485.409 44.6798 491.926 43.3294 499.852 43.3294C510.303 43.3294 519.726 46.0008 528.122 51.3436C536.576 56.6277 543.27 64.4658 548.201 74.8578C553.192 85.1912 555.687 97.873 555.687 112.903C555.687 127.757 553.251 140.381 548.378 150.773C543.504 161.165 536.87 169.091 528.474 174.551C520.078 180.011 510.567 182.741 499.94 182.741C492.19 182.741 485.761 181.45 480.653 178.866C475.545 176.283 471.435 173.171 468.324 169.531C465.271 165.832 462.893 162.339 461.19 159.051H459.341V180.364H427.988ZM459.253 112.727C459.253 121.475 460.486 129.137 462.951 135.713C465.476 142.289 469.087 147.426 473.784 151.125C478.539 154.765 484.293 156.585 491.045 156.585C498.091 156.585 503.991 154.706 508.747 150.949C513.503 147.132 517.084 141.936 519.491 135.361C521.957 128.726 523.19 121.182 523.19 112.727C523.19 104.331 521.986 96.8749 519.579 90.3578C517.172 83.8408 513.591 78.7328 508.835 75.034C504.079 71.3351 498.149 69.4857 491.045 69.4857C484.235 69.4857 478.451 71.2764 473.696 74.8578C468.94 78.4393 465.329 83.4592 462.863 89.9175C460.456 96.3758 459.253 103.979 459.253 112.727ZM646.689 123.471V45.0908H678.57V180.364H647.658V156.321H646.249C643.196 163.895 638.176 170.089 631.189 174.903C624.261 179.718 615.718 182.125 605.561 182.125C596.696 182.125 588.857 180.158 582.047 176.224C575.295 172.232 570.011 166.449 566.195 158.875C562.378 151.242 560.47 142.025 560.47 131.221V45.0908H592.351V126.29C592.351 134.862 594.699 141.672 599.396 146.721C604.093 151.771 610.258 154.295 617.891 154.295C622.588 154.295 627.138 153.15 631.541 150.861C635.945 148.571 639.555 145.166 642.374 140.645C645.25 136.065 646.689 130.341 646.689 123.471ZM720.914 101.102V180.364H689.033V45.0908H719.505V68.0766H721.09C724.202 60.5027 729.163 54.4847 735.973 50.0226C742.843 45.5605 751.327 43.3294 761.425 43.3294C770.76 43.3294 778.892 45.3256 785.82 49.3181C792.807 53.3105 798.208 59.0936 802.025 66.6675C805.9 74.2414 807.808 83.4298 807.749 94.2328V180.364H775.868V99.1647C775.868 90.123 773.52 83.0482 768.823 77.9402C764.185 72.8323 757.756 70.2783 749.536 70.2783C743.958 70.2783 738.997 71.5112 734.652 73.9772C730.366 76.3844 726.99 79.8777 724.525 84.4573C722.117 89.0368 720.914 94.5851 720.914 101.102ZM876.668 233.909C865.219 233.909 855.384 232.353 847.165 229.241C838.945 226.188 832.34 222.078 827.349 216.912C822.359 211.745 818.895 206.021 816.957 199.739L845.668 192.781C846.959 195.423 848.838 198.036 851.304 200.619C853.77 203.261 857.087 205.434 861.256 207.136C865.483 208.898 870.796 209.778 877.196 209.778C886.238 209.778 893.723 207.577 899.653 203.173C905.583 198.828 908.548 191.666 908.548 181.685V156.057H906.963C905.319 159.345 902.912 162.721 899.741 166.185C896.63 169.649 892.49 172.555 887.324 174.903C882.216 177.252 875.787 178.426 868.037 178.426C857.645 178.426 848.222 175.989 839.767 171.116C831.371 166.185 824.678 158.846 819.687 149.099C814.756 139.294 812.29 127.024 812.29 112.287C812.29 97.4327 814.756 84.8976 819.687 74.6817C824.678 64.4071 831.401 56.6277 839.855 51.3436C848.31 46.0008 857.733 43.3294 868.125 43.3294C876.051 43.3294 882.568 44.6798 887.676 47.3806C892.843 50.0226 896.953 53.2224 900.006 56.98C903.059 60.6789 905.378 64.1722 906.963 67.4601H908.724V45.0908H940.165V182.565C940.165 194.132 937.405 203.702 931.886 211.275C926.367 218.849 918.823 224.515 909.253 228.273C899.683 232.03 888.821 233.909 876.668 233.909ZM876.932 153.415C883.684 153.415 889.437 151.771 894.193 148.483C898.949 145.195 902.56 140.469 905.026 134.304C907.491 128.139 908.724 120.741 908.724 112.111C908.724 103.597 907.491 96.141 905.026 89.7414C902.618 83.3417 899.037 78.3806 894.281 74.8578C889.584 71.2764 883.801 69.4857 876.932 69.4857C869.828 69.4857 863.898 71.3351 859.142 75.034C854.386 78.7328 850.805 83.8114 848.398 90.2698C845.99 96.6694 844.787 103.95 844.787 112.111C844.787 120.389 845.99 127.64 848.398 133.864C850.864 140.028 854.474 144.843 859.23 148.307C864.044 151.712 869.945 153.415 876.932 153.415ZM951.927 180.364V-0.000116348H1019.56C1033.42 -0.000116348 1045.04 2.40708 1054.44 7.22147C1063.89 12.0359 1071.02 18.7878 1075.84 27.4772C1080.71 36.1078 1083.15 46.177 1083.15 57.6845C1083.15 69.2508 1080.68 79.2906 1075.75 87.8039C1070.88 96.2584 1063.69 102.805 1054.17 107.443C1044.66 112.023 1032.98 114.312 1019.12 114.312H970.95V87.1874H1014.72C1022.82 87.1874 1029.46 86.0719 1034.62 83.8408C1039.79 81.551 1043.61 78.2338 1046.07 73.8891C1048.6 69.4857 1049.86 64.0842 1049.86 57.6845C1049.86 51.2849 1048.6 45.8247 1046.07 41.3039C1043.55 36.7243 1039.7 33.2603 1034.54 30.9118C1029.37 28.5046 1022.7 27.301 1014.54 27.301H984.6V180.364H951.927ZM1045.1 98.6362L1089.75 180.364H1053.29L1009.44 98.6362H1045.1ZM1175.71 123.471V45.0908H1207.59V180.364H1176.68V156.321H1175.27C1172.22 163.895 1167.2 170.089 1160.21 174.903C1153.29 179.718 1144.74 182.125 1134.59 182.125C1125.72 182.125 1117.88 180.158 1111.07 176.224C1104.32 172.232 1099.04 166.449 1095.22 158.875C1091.4 151.242 1089.49 142.025 1089.49 131.221V45.0908H1121.38V126.29C1121.38 134.862 1123.72 141.672 1128.42 146.721C1133.12 151.771 1139.28 154.295 1146.92 154.295C1151.61 154.295 1156.16 153.15 1160.57 150.861C1164.97 148.571 1168.58 145.166 1171.4 140.645C1174.28 136.065 1175.71 130.341 1175.71 123.471ZM1218.06 231.091V45.0908H1249.41V67.4601H1251.26C1252.9 64.1722 1255.22 60.6789 1258.22 56.98C1261.21 53.2224 1265.26 50.0226 1270.37 47.3806C1275.48 44.6798 1282 43.3294 1289.92 43.3294C1300.37 43.3294 1309.8 46.0008 1318.19 51.3436C1326.65 56.6277 1333.34 64.4658 1338.27 74.8578C1343.26 85.1912 1345.76 97.873 1345.76 112.903C1345.76 127.757 1343.32 140.381 1338.45 150.773C1333.57 161.165 1326.94 169.091 1318.54 174.551C1310.15 180.011 1300.64 182.741 1290.01 182.741C1282.26 182.741 1275.83 181.45 1270.72 178.866C1265.61 176.283 1261.5 173.171 1258.39 169.531C1255.34 165.832 1252.96 162.339 1251.26 159.051H1249.94V231.091H1218.06ZM1249.32 112.727C1249.32 121.475 1250.55 129.137 1253.02 135.713C1255.55 142.289 1259.16 147.426 1263.85 151.125C1268.61 154.765 1274.36 156.585 1281.11 156.585C1288.16 156.585 1294.06 154.706 1298.82 150.949C1303.57 147.132 1307.15 141.936 1309.56 135.361C1312.03 128.726 1313.26 121.182 1313.26 112.727C1313.26 104.331 1312.06 96.8749 1309.65 90.3578C1307.24 83.8408 1303.66 78.7328 1298.9 75.034C1294.15 71.3351 1288.22 69.4857 1281.11 69.4857C1274.3 69.4857 1268.52 71.2764 1263.77 74.8578C1259.01 78.4393 1255.4 83.4592 1252.93 89.9175C1250.53 96.3758 1249.32 103.979 1249.32 112.727ZM1389.66 183.094C1381.09 183.094 1373.37 181.567 1366.5 178.514C1359.69 175.402 1354.29 170.823 1350.3 164.775C1346.36 158.728 1344.4 151.272 1344.4 142.406C1344.4 134.774 1345.81 128.462 1348.62 123.471C1351.44 118.481 1355.29 114.489 1360.16 111.494C1365.03 108.5 1370.52 106.239 1376.63 104.713C1382.79 103.128 1389.16 101.983 1395.74 101.278C1403.67 100.456 1410.1 99.7224 1415.03 99.0766C1419.96 98.372 1423.54 97.3152 1425.77 95.9061C1428.06 94.4383 1429.21 92.1779 1429.21 89.1249V88.5965C1429.21 81.962 1427.24 76.8247 1423.31 73.1845C1419.37 69.5444 1413.71 67.7243 1406.31 67.7243C1398.5 67.7243 1392.31 69.427 1387.73 72.8323C1383.21 76.2376 1380.15 80.2594 1378.57 84.8976L1348.8 80.6703C1351.15 72.4506 1355.02 65.5813 1360.43 60.0624C1365.83 54.4847 1372.43 50.3162 1380.24 47.5567C1388.05 44.7385 1396.68 43.3294 1406.13 43.3294C1412.65 43.3294 1419.14 44.0927 1425.6 45.6192C1432.05 47.1457 1437.95 49.6703 1443.3 53.1931C1448.64 56.6571 1452.93 61.3834 1456.16 67.372C1459.44 73.3607 1461.09 80.8465 1461.09 89.8294V180.364H1430.44V161.781H1429.38C1427.45 165.539 1424.72 169.061 1421.19 172.349C1417.73 175.578 1413.35 178.191 1408.07 180.187C1402.84 182.125 1396.71 183.094 1389.66 183.094ZM1397.94 159.668C1404.34 159.668 1409.89 158.405 1414.59 155.881C1419.28 153.297 1422.89 149.892 1425.42 145.665C1428 141.437 1429.29 136.828 1429.29 131.838V115.898C1428.3 116.72 1426.59 117.483 1424.19 118.187C1421.84 118.892 1419.2 119.508 1416.26 120.037C1413.32 120.565 1410.42 121.035 1407.54 121.446C1404.66 121.857 1402.17 122.209 1400.06 122.503C1395.3 123.149 1391.04 124.205 1387.29 125.673C1383.53 127.141 1380.56 129.196 1378.39 131.838C1376.22 134.421 1375.13 137.768 1375.13 141.878C1375.13 147.749 1377.28 152.182 1381.56 155.176C1385.85 158.17 1391.31 159.668 1397.94 159.668Z" fill="#EEEEEE"/>
</svg>
